<?xml version="1.0" encoding="utf-8"?>
<!-- Generator: Adobe Illustrator 21.0.0, SVG Export Plug-In . SVG Version: 6.00 Build 0)  -->
<svg version="1.1" id="Layer_1" xmlns="http://www.w3.org/2000/svg" xmlns:xlink="http://www.w3.org/1999/xlink" x="0px" y="0px"
	 viewBox="0 0 50 50" enable-background="new 0 0 50 50" xml:space="preserve">
<g>
	<path fill="#FFFFFF" d="M18.342,22.336h18.831c1.471,0,2.664,1.193,2.664,2.664v0c0,1.471-1.193,2.664-2.664,2.664H18.342
		c-1.471,0-2.664-1.193-2.664-2.664v0C15.678,23.529,16.871,22.336,18.342,22.336z"/>
	<g>
		<path fill="#FFFFFF" d="M14.711,23.16l11.174,11.174c1.04,1.04,1.04,2.727,0,3.767l0,0c-1.04,1.04-2.727,1.04-3.767,0
			L10.944,26.926c-1.04-1.04-1.04-2.727,0-3.767l0,0C11.984,22.119,13.67,22.119,14.711,23.16z"/>
		<path fill="#FFFFFF" d="M14.711,26.84l11.174-11.174c1.04-1.04,1.04-2.727,0-3.767l0,0c-1.04-1.04-2.727-1.04-3.767,0
			L10.944,23.074c-1.04,1.04-1.04,2.727,0,3.767l0,0C11.984,27.881,13.67,27.881,14.711,26.84z"/>
	</g>
</g>
</svg>
