<?xml version="1.0" encoding="utf-8"?>
<!-- Generator: Adobe Illustrator 21.0.0, SVG Export Plug-In . SVG Version: 6.00 Build 0)  -->
<svg version="1.1" id="Layer_1" xmlns="http://www.w3.org/2000/svg" xmlns:xlink="http://www.w3.org/1999/xlink" x="0px" y="0px"
	 viewBox="0 0 50 50" enable-background="new 0 0 50 50" xml:space="preserve">
<path fill="#777777" d="M35.75,44.5h-21.5C10.246,44.5,7,41.254,7,37.25v-21.5c0-4.004,3.246-7.25,7.25-7.25h21.5
	c4.004,0,7.25,3.246,7.25,7.25v21.5C43,41.254,39.754,44.5,35.75,44.5z"/>
<path fill="#FFFFFF" d="M35.75,41.5h-21.5C10.246,41.5,7,38.254,7,34.25v-21.5c0-4.004,3.246-7.25,7.25-7.25h21.5
	c4.004,0,7.25,3.246,7.25,7.25v21.5C43,38.254,39.754,41.5,35.75,41.5z"/>
<g>
	<path fill="#E6E6E6" d="M25.796,5.5v25.842c0,0.617,0.69,0.981,1.2,0.634l3.803-2.595c0.261-0.178,0.604-0.178,0.865,0l3.803,2.595
		c0.509,0.348,1.2-0.017,1.2-0.634V5.5H25.796z"/>
</g>
<g>
	<path fill="#777777" d="M24.652,5.548v23.506c0,0.617,0.69,0.981,1.2,0.634l3.803-2.595c0.261-0.178,0.604-0.178,0.865,0
		l3.803,2.595c0.509,0.348,1.2-0.017,1.2-0.634V5.548H24.652z"/>
</g>
</svg>
