<?xml version="1.0" encoding="utf-8"?>
<!-- Generator: Adobe Illustrator 21.0.0, SVG Export Plug-In . SVG Version: 6.00 Build 0)  -->
<svg version="1.1" id="Layer_1" xmlns="http://www.w3.org/2000/svg" xmlns:xlink="http://www.w3.org/1999/xlink" x="0px" y="0px"
	 viewBox="0 0 50 50" enable-background="new 0 0 50 50" xml:space="preserve">
<g>
	<path fill="#777777" d="M35.75,44.5h-21.5C10.246,44.5,7,41.254,7,37.25v-21.5c0-4.004,3.246-7.25,7.25-7.25h21.5
		c4.004,0,7.25,3.246,7.25,7.25v21.5C43,41.254,39.754,44.5,35.75,44.5z"/>
	<path fill="#FFFFFF" d="M35.75,41.5h-21.5C10.246,41.5,7,38.254,7,34.25v-21.5c0-4.004,3.246-7.25,7.25-7.25h21.5
		c4.004,0,7.25,3.246,7.25,7.25v21.5C43,38.254,39.754,41.5,35.75,41.5z"/>
</g>
<g>
	<path fill="#E6E6E6" d="M31.024,26.355c0.882,3.59-2.548,6.639-3.075,7.111c-1.876,1.678-3.958,2.183-4.979,2.359
		c0.449-0.801,1-2.045,1.057-3.594c0.103-2.811-1.526-3.81-1.133-5.915c0.351-1.877,2.185-3.955,4.25-3.875
		C29.2,22.52,30.619,24.706,31.024,26.355z"/>
	<g>
		<path fill="#E6E6E6" d="M27.144,20.29c1.237,0.048,2.237,0.862,2.931,1.859V5.5h-6.148L22.972,21
			C23.775,19.987,25.891,20.241,27.144,20.29z"/>
	</g>
</g>
<g>
	<path fill="#777777" d="M29.024,26.355c0.882,3.59-2.548,6.639-3.075,7.111c-1.876,1.678-3.958,2.183-4.979,2.359
		c0.449-0.801,1-2.045,1.057-3.594c0.103-2.811-1.526-3.81-1.133-5.915c0.351-1.877,2.185-3.955,4.25-3.875
		C27.2,22.52,28.619,24.706,29.024,26.355z"/>
	<g>
		<path fill="#777777" d="M25.144,20.29c1.237,0.048,2.237,0.862,2.931,1.859V5.5h-6.148v16.504
			C22.729,20.991,23.891,20.241,25.144,20.29z"/>
	</g>
</g>
<ellipse fill="#E6E6E6" cx="25.928" cy="37.852" rx="5.072" ry="1.106"/>
</svg>
