<?xml version="1.0" encoding="utf-8"?>
<!-- Generator: Adobe Illustrator 21.0.0, SVG Export Plug-In . SVG Version: 6.00 Build 0)  -->
<svg version="1.1" id="Layer_1" xmlns="http://www.w3.org/2000/svg" xmlns:xlink="http://www.w3.org/1999/xlink" x="0px" y="0px"
	 viewBox="0 0 50 50" enable-background="new 0 0 50 50" xml:space="preserve">
<g>
	<g>
		<g>
			<path fill="#E6E6E6" d="M26,11c-8.284,0-15,6.716-15,15s6.716,15,15,15c8.284,0,15-6.716,15-15S34.284,11,26,11z M26,38.375
				c-6.835,0-12.375-5.54-12.375-12.375S19.165,13.625,26,13.625S38.375,19.165,38.375,26S32.835,38.375,26,38.375z"/>
		</g>
	</g>
	<path fill="#E6E6E6" d="M28.961,26.534c-0.295-0.295-0.295-0.772,0-1.067l1.287-1.287l2.459-2.459c0.295-0.295,0.295-0.772,0-1.067
		l-1.36-1.36c-0.295-0.295-0.773-0.295-1.067,0l-2.459,2.459L26,23.572l0,0l-4.28-4.28c-0.295-0.295-0.772-0.295-1.067,0l-1.36,1.36
		c-0.295,0.295-0.295,0.772,0,1.067l3.747,3.747c0.295,0.295,0.295,0.772,0,1.067l-3.747,3.747c-0.295,0.295-0.295,0.772,0,1.067
		l1.36,1.36c0.295,0.295,0.772,0.295,1.067,0l3.747-3.747c0.295-0.295,0.772-0.295,1.067,0l1.287,1.287l2.459,2.459
		c0.295,0.295,0.772,0.295,1.067,0l1.36-1.36c0.295-0.295,0.295-0.772,0-1.067l-2.459-2.46L28.961,26.534z"/>
</g>
<g>
	<g>
		<g>
			<path fill="#FFFFFF" d="M25,10c-8.284,0-15,6.716-15,15s6.716,15,15,15c8.284,0,15-6.716,15-15S33.284,10,25,10z M25,37.375
				c-6.835,0-12.375-5.54-12.375-12.375S18.165,12.625,25,12.625S37.375,18.165,37.375,25S31.835,37.375,25,37.375z"/>
		</g>
	</g>
	<path fill="#FFFFFF" d="M27.961,25.534c-0.295-0.295-0.295-0.772,0-1.067l1.287-1.287l2.459-2.459c0.295-0.295,0.295-0.772,0-1.067
		l-1.36-1.36c-0.295-0.295-0.773-0.295-1.067,0l-2.459,2.459L25,22.572l0,0l-4.28-4.28c-0.295-0.295-0.772-0.295-1.067,0l-1.36,1.36
		c-0.295,0.295-0.295,0.772,0,1.067l3.747,3.747c0.295,0.295,0.295,0.772,0,1.067l-3.747,3.747c-0.295,0.295-0.295,0.772,0,1.067
		l1.36,1.36c0.295,0.295,0.772,0.295,1.067,0l3.747-3.747c0.295-0.295,0.772-0.295,1.067,0l1.287,1.287l2.459,2.459
		c0.295,0.295,0.772,0.295,1.067,0l1.36-1.36c0.295-0.295,0.295-0.772,0-1.067l-2.459-2.46L27.961,25.534z"/>
</g>
</svg>
