<?xml version="1.0" encoding="utf-8"?>
<!-- Generator: Adobe Illustrator 21.0.0, SVG Export Plug-In . SVG Version: 6.00 Build 0)  -->
<svg version="1.1" id="Layer_1" xmlns="http://www.w3.org/2000/svg" xmlns:xlink="http://www.w3.org/1999/xlink" x="0px" y="0px"
	 viewBox="0 0 50 50" enable-background="new 0 0 50 50" xml:space="preserve">
<g>
	<g>
		<path fill="#E6E6E6" d="M18.508,20.619h18.186c0.854,0,1.547,0.692,1.547,1.547v0c0,0.854-0.692,1.547-1.547,1.547H18.508
			c-0.854,0-1.547-0.692-1.547-1.547v0C16.962,21.311,17.654,20.619,18.508,20.619z"/>
		<g>
			<path fill="#E6E6E6" d="M16.4,21.097l6.488,6.488c0.604,0.604,0.604,1.583,0,2.187l0,0c-0.604,0.604-1.583,0.604-2.187,0
				l-6.488-6.488c-0.604-0.604-0.604-1.583,0-2.187l0,0C14.816,20.493,15.796,20.493,16.4,21.097z"/>
			<path fill="#E6E6E6" d="M16.4,23.234l6.488-6.488c0.604-0.604,0.604-1.583,0-2.187l0,0c-0.604-0.604-1.583-0.604-2.187,0
				l-6.488,6.488c-0.604,0.604-0.604,1.583,0,2.187l0,0C14.816,23.838,15.796,23.838,16.4,23.234z"/>
		</g>
	</g>
	<path fill="#E6E6E6" d="M38.241,22.275v14.072c0,0.854-0.692,1.547-1.547,1.547l0,0c-0.854,0-1.547-0.692-1.547-1.547V22.275
		c0-0.854,0.692-1.547,1.547-1.547l0,0C37.548,20.729,38.241,21.421,38.241,22.275z"/>
</g>
<g>
	<g>
		<path fill="#FFFFFF" d="M17.508,19.619h18.186c0.854,0,1.547,0.692,1.547,1.547v0c0,0.854-0.692,1.547-1.547,1.547H17.508
			c-0.854,0-1.547-0.692-1.547-1.547v0C15.962,20.311,16.654,19.619,17.508,19.619z"/>
		<g>
			<path fill="#FFFFFF" d="M15.4,20.097l6.488,6.488c0.604,0.604,0.604,1.583,0,2.187l0,0c-0.604,0.604-1.583,0.604-2.187,0
				l-6.488-6.488c-0.604-0.604-0.604-1.583,0-2.187l0,0C13.816,19.493,14.796,19.493,15.4,20.097z"/>
			<path fill="#FFFFFF" d="M15.4,22.234l6.488-6.488c0.604-0.604,0.604-1.583,0-2.187l0,0c-0.604-0.604-1.583-0.604-2.187,0
				l-6.488,6.488c-0.604,0.604-0.604,1.583,0,2.187l0,0C13.816,22.838,14.796,22.838,15.4,22.234z"/>
		</g>
	</g>
	<path fill="#FFFFFF" d="M37.241,21.275v14.072c0,0.854-0.692,1.547-1.547,1.547l0,0c-0.854,0-1.547-0.692-1.547-1.547V21.275
		c0-0.854,0.692-1.547,1.547-1.547l0,0C36.548,19.729,37.241,20.421,37.241,21.275z"/>
</g>
</svg>
