<?xml version="1.0" encoding="utf-8"?>
<!-- Generator: Adobe Illustrator 21.0.0, SVG Export Plug-In . SVG Version: 6.00 Build 0)  -->
<svg version="1.1" id="Layer_1" xmlns="http://www.w3.org/2000/svg" xmlns:xlink="http://www.w3.org/1999/xlink" x="0px" y="0px"
	 viewBox="0 0 50 50" enable-background="new 0 0 50 50" xml:space="preserve">
<g>
	<g>
		<path fill="#E6E6E6" d="M26.876,37.168c1.915,3.162,6.496,2.893,7.202,2.853c2.513-0.14,4.342-1.255,5.189-1.853
			c-0.884-0.249-2.154-0.739-3.289-1.793c-2.061-1.915-1.615-3.774-3.381-4.984c-1.575-1.079-4.341-1.252-5.745,0.265
			C25.453,33.167,25.996,35.716,26.876,37.168z"/>
		<g>
			<path fill="#E6E6E6" d="M25.331,30.136c-0.841,0.909-0.972,2.191-0.758,3.387L8.255,17.205c-1.201-1.201-1.201-3.147,0-4.348l0,0
				c1.201-1.201,3.147-1.201,4.348,0l16.216,16.216C27.534,28.924,26.182,29.215,25.331,30.136z"/>
		</g>
	</g>
	<path fill="#E6E6E6" d="M44.644,34.723c0.058,1.416-1.463,2.3-1.696,2.437c-0.832,0.488-1.653,0.519-2.05,0.507
		c0.23-0.267,0.532-0.692,0.671-1.27c0.253-1.048-0.284-1.548,0.024-2.308c0.275-0.678,1.122-1.32,1.892-1.132
		C44.251,33.143,44.617,34.073,44.644,34.723z"/>
	<path fill="#E6E6E6" d="M38.203,33.843c-0.271,0.844,0.497,1.631,0.615,1.752c0.42,0.433,0.91,0.589,1.151,0.648
		c-0.094-0.199-0.205-0.506-0.192-0.877c0.023-0.674,0.429-0.885,0.371-1.395c-0.052-0.455-0.456-0.983-0.951-0.998
		C38.704,32.956,38.328,33.455,38.203,33.843z"/>
</g>
<g>
	<g>
		<path fill="#FFFFFF" d="M25.876,36.168c1.915,3.162,6.496,2.893,7.202,2.853c2.513-0.14,4.342-1.255,5.189-1.853
			c-0.884-0.249-2.154-0.739-3.289-1.793c-2.061-1.915-1.615-3.774-3.381-4.984c-1.575-1.079-4.341-1.252-5.745,0.265
			C24.453,32.167,24.996,34.716,25.876,36.168z"/>
		<g>
			<path fill="#FFFFFF" d="M24.331,29.136c-0.841,0.909-0.972,2.191-0.758,3.387L7.255,16.205c-1.201-1.201-1.201-3.147,0-4.348l0,0
				c1.201-1.201,3.147-1.201,4.348,0l16.216,16.216C26.534,27.924,25.182,28.215,24.331,29.136z"/>
		</g>
	</g>
	<path fill="#FFFFFF" d="M43.644,33.723c0.058,1.416-1.463,2.3-1.696,2.437c-0.832,0.488-1.653,0.519-2.05,0.507
		c0.23-0.267,0.532-0.692,0.671-1.27c0.253-1.048-0.284-1.548,0.024-2.308c0.275-0.678,1.122-1.32,1.892-1.132
		C43.251,32.143,43.617,33.073,43.644,33.723z"/>
	<path fill="#FFFFFF" d="M37.203,32.843c-0.271,0.844,0.497,1.631,0.615,1.752c0.42,0.433,0.91,0.589,1.151,0.648
		c-0.094-0.199-0.205-0.506-0.192-0.877c0.023-0.674,0.429-0.885,0.371-1.395c-0.052-0.455-0.456-0.983-0.951-0.998
		C37.704,31.956,37.328,32.455,37.203,32.843z"/>
</g>
</svg>
