<?xml version="1.0" encoding="utf-8"?>
<!-- Generator: Adobe Illustrator 21.0.0, SVG Export Plug-In . SVG Version: 6.00 Build 0)  -->
<svg version="1.1" id="Layer_1" xmlns="http://www.w3.org/2000/svg" xmlns:xlink="http://www.w3.org/1999/xlink" x="0px" y="0px"
	 viewBox="0 0 50 50" enable-background="new 0 0 50 50" xml:space="preserve">
<g>
	<g>
		<path fill="#E6E6E6" d="M28.207,28.41c-0.841,0.909-0.972,2.191-0.758,3.387L11.131,15.479c-1.201-1.201-1.201-3.147,0-4.348l0,0
			c1.201-1.201,3.147-1.201,4.348,0l16.216,16.216C30.411,27.199,29.058,27.49,28.207,28.41z"/>
	</g>
	<g>
		<path fill="#E6E6E6" d="M31.597,33.718c-0.522-0.522-0.576-1.332-0.167-1.917l-1.993-1.993c-2.046,2.859-1.837,4.505-1.539,5.315
			c0.951,2.59,4.898,2.366,8.336,5.542c0.316,0.292,1.395,1.32,1.812,1.062c0.217-0.134,0.197-0.565,0.148-0.899
			c-0.057-0.475-0.213-1.23-0.688-2.018c-0.836-1.385-2.105-1.953-2.57-2.135c-0.018-0.018-0.113-0.116-0.113-0.272
			c0-0.098,0.038-0.197,0.113-0.272l0.412-0.412l-1.834-1.834C32.929,34.294,32.119,34.24,31.597,33.718z"/>
		<path fill="#E6E6E6" d="M35.124,27.898c-0.811-0.298-2.456-0.507-5.315,1.539l1.993,1.993c0.585-0.409,1.395-0.355,1.917,0.167
			c0.522,0.522,0.576,1.332,0.167,1.917l1.834,1.834l0.412-0.412c0.075-0.075,0.174-0.113,0.272-0.113
			c0.156,0,0.254,0.095,0.272,0.113c0.182,0.465,0.749,1.734,2.135,2.57c0.788,0.476,1.543,0.631,2.018,0.688
			c0.334,0.049,0.765,0.07,0.899-0.148c0.257-0.417-0.77-1.496-1.062-1.812C37.491,32.796,37.715,28.849,35.124,27.898z"/>
	</g>
</g>
<g>
	<g>
		<path fill="#FFFFFF" d="M27.207,27.41c-0.841,0.909-0.972,2.191-0.758,3.387L10.131,14.479c-1.201-1.201-1.201-3.147,0-4.348l0,0
			c1.201-1.201,3.147-1.201,4.348,0l16.216,16.216C29.411,26.199,28.058,26.49,27.207,27.41z"/>
	</g>
	<g>
		<path fill="#FFFFFF" d="M30.597,32.718c-0.522-0.522-0.576-1.332-0.167-1.917l-1.993-1.993c-2.046,2.859-1.837,4.505-1.539,5.315
			c0.951,2.59,4.898,2.366,8.336,5.542c0.316,0.292,1.395,1.32,1.812,1.062c0.217-0.134,0.197-0.565,0.148-0.899
			c-0.057-0.475-0.213-1.23-0.688-2.018c-0.836-1.385-2.105-1.953-2.57-2.135c-0.018-0.018-0.113-0.116-0.113-0.272
			c0-0.098,0.038-0.197,0.113-0.272l0.412-0.412l-1.834-1.834C31.929,33.294,31.119,33.24,30.597,32.718z"/>
		<path fill="#FFFFFF" d="M34.124,26.898c-0.811-0.298-2.456-0.507-5.315,1.539l1.993,1.993c0.585-0.409,1.395-0.355,1.917,0.167
			c0.522,0.522,0.576,1.332,0.167,1.917l1.834,1.834l0.412-0.412c0.075-0.075,0.174-0.113,0.272-0.113
			c0.156,0,0.254,0.095,0.272,0.113c0.182,0.465,0.749,1.734,2.135,2.57c0.788,0.476,1.543,0.631,2.018,0.688
			c0.334,0.049,0.765,0.07,0.899-0.148c0.257-0.417-0.77-1.496-1.062-1.812C36.491,31.796,36.715,27.849,34.124,26.898z"/>
	</g>
</g>
</svg>
