<?xml version="1.0" encoding="utf-8"?>
<!-- Generator: Adobe Illustrator 21.0.0, SVG Export Plug-In . SVG Version: 6.00 Build 0)  -->
<svg version="1.1" id="Layer_1" xmlns="http://www.w3.org/2000/svg" xmlns:xlink="http://www.w3.org/1999/xlink" x="0px" y="0px"
	 viewBox="0 0 50 50" enable-background="new 0 0 50 50" xml:space="preserve">
<g>
	<path fill="#E6E6E6" d="M39.972,38.702H12.028c-0.841,0-1.523-0.682-1.523-1.523v0c0-0.841,0.682-1.523,1.523-1.523h27.944
		c0.841,0,1.523,0.682,1.523,1.523v0C41.495,38.02,40.813,38.702,39.972,38.702z"/>
	<g>
		<path fill="#E6E6E6" d="M24.237,27.528V15.061c0-0.974,0.79-1.763,1.763-1.763h0c0.974,0,1.763,0.79,1.763,1.763v12.467
			c0,0.974-0.79,1.763-1.763,1.763h0C25.026,29.292,24.237,28.502,24.237,27.528z"/>
		<g>
			<path fill="#E6E6E6" d="M24.782,29.933l7.398-7.398c0.689-0.689,1.805-0.689,2.494,0v0c0.689,0.689,0.689,1.805,0,2.494
				l-7.398,7.398c-0.689,0.689-1.805,0.689-2.494,0h0C24.093,31.738,24.093,30.621,24.782,29.933z"/>
			<path fill="#E6E6E6" d="M27.218,29.933l-7.398-7.398c-0.689-0.689-1.805-0.689-2.494,0l0,0c-0.689,0.689-0.689,1.805,0,2.494
				l7.398,7.398c0.689,0.689,1.805,0.689,2.494,0h0C27.907,31.738,27.907,30.621,27.218,29.933z"/>
		</g>
	</g>
</g>
<g>
	<path fill="#FFFFFF" d="M38.972,37.702H11.028c-0.841,0-1.523-0.682-1.523-1.523v0c0-0.841,0.682-1.523,1.523-1.523h27.944
		c0.841,0,1.523,0.682,1.523,1.523v0C40.495,37.02,39.813,37.702,38.972,37.702z"/>
	<g>
		<path fill="#FFFFFF" d="M23.237,26.528V14.061c0-0.974,0.79-1.763,1.763-1.763h0c0.974,0,1.763,0.79,1.763,1.763v12.467
			c0,0.974-0.79,1.763-1.763,1.763h0C24.026,28.292,23.237,27.502,23.237,26.528z"/>
		<g>
			<path fill="#FFFFFF" d="M23.782,28.933l7.398-7.398c0.689-0.689,1.805-0.689,2.494,0v0c0.689,0.689,0.689,1.805,0,2.494
				l-7.398,7.398c-0.689,0.689-1.805,0.689-2.494,0l0,0C23.093,30.738,23.093,29.621,23.782,28.933z"/>
			<path fill="#FFFFFF" d="M26.218,28.933l-7.398-7.398c-0.689-0.689-1.805-0.689-2.494,0l0,0c-0.689,0.689-0.689,1.805,0,2.494
				l7.398,7.398c0.689,0.689,1.805,0.689,2.494,0l0,0C26.907,30.738,26.907,29.621,26.218,28.933z"/>
		</g>
	</g>
</g>
</svg>
