<?xml version="1.0" encoding="utf-8"?>
<!-- Generator: Adobe Illustrator 21.0.0, SVG Export Plug-In . SVG Version: 6.00 Build 0)  -->
<svg version="1.1" id="Layer_1" xmlns="http://www.w3.org/2000/svg" xmlns:xlink="http://www.w3.org/1999/xlink" x="0px" y="0px"
	 viewBox="0 0 50 50" enable-background="new 0 0 50 50" xml:space="preserve">
<path fill="#E6E6E6" d="M33.75,44h-15.5C14.246,44,11,40.754,11,36.75v-21.5C11,11.246,14.246,8,18.25,8h15.5
	C37.754,8,41,11.246,41,15.25v21.5C41,40.754,37.754,44,33.75,44z"/>
<g>
	<path fill="#FFFFFF" d="M32.75,43h-15.5C13.246,43,10,39.754,10,35.75v-21.5C10,10.246,13.246,7,17.25,7h15.5
		C36.754,7,40,10.246,40,14.25v21.5C40,39.754,36.754,43,32.75,43z"/>
	<g>
		<polygon fill="#E6E6E6" points="30.333,17.167 39.969,17.167 30.335,7.042 30.333,7.042 		"/>
		<path fill="#B3B3B3" d="M40,17.167v-2.875c0-4.004-3.246-7.25-7.25-7.25h-2.415l9.634,10.125H40z"/>
	</g>
</g>
</svg>
