<?xml version="1.0" encoding="utf-8"?>
<!-- Generator: Adobe Illustrator 21.0.0, SVG Export Plug-In . SVG Version: 6.00 Build 0)  -->
<svg version="1.1" id="Layer_1" xmlns="http://www.w3.org/2000/svg" xmlns:xlink="http://www.w3.org/1999/xlink" x="0px" y="0px"
	 viewBox="0 0 50 50" enable-background="new 0 0 50 50" xml:space="preserve">
<path fill="#E6E6E6" d="M39.972,42.567H12.028c-0.841,0-1.523-0.682-1.523-1.523l0,0c0-0.841,0.682-1.523,1.523-1.523h27.944
	c0.841,0,1.523,0.682,1.523,1.523l0,0C41.495,41.885,40.813,42.567,39.972,42.567z"/>
<g>
	<path fill="#E6E6E6" d="M13.218,26.151c-1.856,1.857-1.856,4.867,0,6.723l6.646,6.646h7.805l1.827-1.827l-13.91-13.91
		L13.218,26.151z"/>
	<path fill="#E6E6E6" d="M38.782,21.683l-7.187-7.187c-1.856-1.856-4.867-1.856-6.723,0l-7.601,7.601l13.91,13.91l7.601-7.601
		C40.639,26.55,40.639,23.54,38.782,21.683z"/>
</g>
<path fill="#FFFFFF" d="M38.972,41.567H11.028c-0.841,0-1.523-0.682-1.523-1.523l0,0c0-0.841,0.682-1.523,1.523-1.523h27.944
	c0.841,0,1.523,0.682,1.523,1.523l0,0C40.495,40.885,39.813,41.567,38.972,41.567z"/>
<g>
	<path fill="#FFFFFF" d="M12.218,25.151c-1.856,1.857-1.856,4.867,0,6.723l6.646,6.646h7.805l1.827-1.827l-13.91-13.91
		L12.218,25.151z"/>
	<path fill="#FFFFFF" d="M37.782,20.683l-7.187-7.187c-1.856-1.856-4.867-1.856-6.723,0l-7.601,7.601l13.91,13.91l7.601-7.601
		C39.639,25.55,39.639,22.54,37.782,20.683z"/>
</g>
</svg>
