<?xml version="1.0" encoding="utf-8"?>
<!-- Generator: Adobe Illustrator 21.0.0, SVG Export Plug-In . SVG Version: 6.00 Build 0)  -->
<svg version="1.1" id="Layer_1" xmlns="http://www.w3.org/2000/svg" xmlns:xlink="http://www.w3.org/1999/xlink" x="0px" y="0px"
	 viewBox="0 0 50 50" enable-background="new 0 0 50 50" xml:space="preserve">
<g>
	<g>
		<path fill="#E6E6E6" d="M32.492,20.619H14.306c-0.854,0-1.547,0.692-1.547,1.547v0c0,0.854,0.692,1.547,1.547,1.547h18.186
			c0.854,0,1.547-0.692,1.547-1.547v0C34.038,21.311,33.346,20.619,32.492,20.619z"/>
		<g>
			<path fill="#E6E6E6" d="M34.6,21.097l-6.488,6.488c-0.604,0.604-0.604,1.583,0,2.187l0,0c0.604,0.604,1.583,0.604,2.187,0
				l6.488-6.488c0.604-0.604,0.604-1.583,0-2.187l0,0C36.184,20.493,35.204,20.493,34.6,21.097z"/>
			<path fill="#E6E6E6" d="M34.6,23.234l-6.488-6.488c-0.604-0.604-0.604-1.583,0-2.187l0,0c0.604-0.604,1.583-0.604,2.187,0
				l6.488,6.488c0.604,0.604,0.604,1.583,0,2.187l0,0C36.184,23.838,35.204,23.838,34.6,23.234z"/>
		</g>
	</g>
	<path fill="#E6E6E6" d="M12.759,22.275v14.072c0,0.854,0.692,1.547,1.547,1.547h0c0.854,0,1.547-0.692,1.547-1.547V22.275
		c0-0.854-0.692-1.547-1.547-1.547h0C13.452,20.729,12.759,21.421,12.759,22.275z"/>
</g>
<g>
	<g>
		<path fill="#FFFFFF" d="M33.492,19.619H15.306c-0.854,0-1.547,0.692-1.547,1.547v0c0,0.854,0.692,1.547,1.547,1.547h18.186
			c0.854,0,1.547-0.692,1.547-1.547v0C35.038,20.311,34.346,19.619,33.492,19.619z"/>
		<g>
			<path fill="#FFFFFF" d="M35.6,20.097l-6.488,6.488c-0.604,0.604-0.604,1.583,0,2.187l0,0c0.604,0.604,1.583,0.604,2.187,0
				l6.488-6.488c0.604-0.604,0.604-1.583,0-2.187l0,0C37.184,19.493,36.204,19.493,35.6,20.097z"/>
			<path fill="#FFFFFF" d="M35.6,22.234l-6.488-6.488c-0.604-0.604-0.604-1.583,0-2.187l0,0c0.604-0.604,1.583-0.604,2.187,0
				l6.488,6.488c0.604,0.604,0.604,1.583,0,2.187l0,0C37.184,22.838,36.204,22.838,35.6,22.234z"/>
		</g>
	</g>
	<path fill="#FFFFFF" d="M13.759,21.275v14.072c0,0.854,0.692,1.547,1.547,1.547h0c0.854,0,1.547-0.692,1.547-1.547V21.275
		c0-0.854-0.692-1.547-1.547-1.547h0C14.452,19.729,13.759,20.421,13.759,21.275z"/>
</g>
</svg>
