<?xml version="1.0" encoding="utf-8"?>
<!-- Generator: Adobe Illustrator 21.0.0, SVG Export Plug-In . SVG Version: 6.00 Build 0)  -->
<svg version="1.1" id="Layer_1" xmlns="http://www.w3.org/2000/svg" xmlns:xlink="http://www.w3.org/1999/xlink" x="0px" y="0px"
	 viewBox="0 0 50 50" enable-background="new 0 0 50 50" xml:space="preserve">
<g>
	<g>
		<path fill="#E6E6E6" d="M41.073,13.081l-7.615,7.615c-0.595,0.595-1.559,0.595-2.154,0l0,0c-0.595-0.595-0.595-1.559,0-2.154
			l7.615-7.615c0.595-0.595,1.559-0.595,2.154,0v0C41.668,11.522,41.668,12.486,41.073,13.081z"/>
		<g>
			<path fill="#E6E6E6" d="M42.209,11.28h-9.037c-0.841,0-1.523-0.682-1.523-1.523v0c0-0.841,0.682-1.523,1.523-1.523h9.037
				c0.841,0,1.523,0.682,1.523,1.523v0C43.732,10.598,43.05,11.28,42.209,11.28z"/>
			<path fill="#E6E6E6" d="M40.72,9.791v9.037c0,0.841,0.682,1.523,1.523,1.523h0c0.841,0,1.523-0.682,1.523-1.523V9.791
				c0-0.841-0.682-1.523-1.523-1.523h0C41.402,8.268,40.72,8.95,40.72,9.791z"/>
		</g>
	</g>
	<g>
		<path fill="#E6E6E6" d="M10.927,38.919l7.615-7.615c0.595-0.595,1.559-0.595,2.154,0l0,0c0.595,0.595,0.595,1.559,0,2.154
			l-7.615,7.615c-0.595,0.595-1.559,0.595-2.154,0h0C10.332,40.478,10.332,39.514,10.927,38.919z"/>
		<g>
			<path fill="#E6E6E6" d="M9.791,40.72h9.037c0.841,0,1.523,0.682,1.523,1.523v0c0,0.841-0.682,1.523-1.523,1.523H9.791
				c-0.841,0-1.523-0.682-1.523-1.523v0C8.268,41.402,8.95,40.72,9.791,40.72z"/>
			<path fill="#E6E6E6" d="M11.28,42.209v-9.037c0-0.841-0.682-1.523-1.523-1.523h0c-0.841,0-1.523,0.682-1.523,1.523v9.037
				c0,0.841,0.682,1.523,1.523,1.523h0C10.598,43.732,11.28,43.05,11.28,42.209z"/>
		</g>
	</g>
</g>
<g>
	<g>
		<path fill="#FFFFFF" d="M40.073,12.081l-7.615,7.615c-0.595,0.595-1.559,0.595-2.154,0l0,0c-0.595-0.595-0.595-1.559,0-2.154
			l7.615-7.615c0.595-0.595,1.559-0.595,2.154,0v0C40.668,10.522,40.668,11.486,40.073,12.081z"/>
		<g>
			<path fill="#FFFFFF" d="M41.209,10.28h-9.037c-0.841,0-1.523-0.682-1.523-1.523v0c0-0.841,0.682-1.523,1.523-1.523h9.037
				c0.841,0,1.523,0.682,1.523,1.523v0C42.732,9.598,42.05,10.28,41.209,10.28z"/>
			<path fill="#FFFFFF" d="M39.72,8.791v9.037c0,0.841,0.682,1.523,1.523,1.523h0c0.841,0,1.523-0.682,1.523-1.523V8.791
				c0-0.841-0.682-1.523-1.523-1.523h0C40.402,7.268,39.72,7.95,39.72,8.791z"/>
		</g>
	</g>
	<g>
		<path fill="#FFFFFF" d="M9.927,37.919l7.615-7.615c0.595-0.595,1.559-0.595,2.154,0l0,0c0.595,0.595,0.595,1.559,0,2.154
			l-7.615,7.615c-0.595,0.595-1.559,0.595-2.154,0h0C9.332,39.478,9.332,38.514,9.927,37.919z"/>
		<g>
			<path fill="#FFFFFF" d="M8.791,39.72h9.037c0.841,0,1.523,0.682,1.523,1.523v0c0,0.841-0.682,1.523-1.523,1.523H8.791
				c-0.841,0-1.523-0.682-1.523-1.523v0C7.268,40.402,7.95,39.72,8.791,39.72z"/>
			<path fill="#FFFFFF" d="M10.28,41.209v-9.037c0-0.841-0.682-1.523-1.523-1.523h0c-0.841,0-1.523,0.682-1.523,1.523v9.037
				c0,0.841,0.682,1.523,1.523,1.523h0C9.598,42.732,10.28,42.05,10.28,41.209z"/>
		</g>
	</g>
</g>
</svg>
