<?xml version="1.0" encoding="utf-8"?>
<!-- Generator: Adobe Illustrator 21.0.0, SVG Export Plug-In . SVG Version: 6.00 Build 0)  -->
<svg version="1.1" id="Layer_1" xmlns="http://www.w3.org/2000/svg" xmlns:xlink="http://www.w3.org/1999/xlink" x="0px" y="0px"
	 viewBox="0 0 50 50" enable-background="new 0 0 50 50" xml:space="preserve">
<g>
	<g>
		<path fill="#E6E6E6" d="M18.835,35.515c0.12-0.96,0.488-2.048,1.103-3.263s1.267-2.527,1.958-3.938L25,22.105
			c0.75,0.061,1.604,0.016,2.565-0.135c0.96-0.15,1.83-0.39,2.61-0.72L24.55,32.59c-1.35,2.851-1.47,4.275-0.36,4.275
			c0.69,0,1.56-0.465,2.61-1.395c1.05-0.93,2.22-2.505,3.51-4.725l1.08,0.63c-0.66,0.99-1.328,1.958-2.002,2.902
			c-0.675,0.945-1.403,1.793-2.183,2.542c-0.781,0.75-1.62,1.35-2.52,1.8c-0.9,0.45-1.906,0.675-3.015,0.675
			c-0.81,0-1.53-0.307-2.16-0.922C18.88,37.758,18.655,36.805,18.835,35.515z M32.785,16.66c-0.42,0.81-1.043,1.357-1.868,1.643
			c-0.826,0.285-1.613,0.247-2.362-0.113c-0.81-0.42-1.328-1.005-1.553-1.755c-0.225-0.75-0.112-1.515,0.337-2.295
			c0.42-0.78,1.042-1.29,1.868-1.53c0.825-0.24,1.612-0.18,2.362,0.18c0.75,0.42,1.238,0.998,1.463,1.732
			C33.257,15.258,33.174,15.97,32.785,16.66z"/>
	</g>
	<g>
		<path fill="#FFFFFF" d="M17.87,34.635c0.12-0.96,0.488-2.048,1.103-3.263c0.615-1.215,1.267-2.527,1.958-3.938l3.105-6.21
			c0.75,0.061,1.604,0.016,2.565-0.135c0.96-0.15,1.83-0.39,2.61-0.72l-5.625,11.34c-1.35,2.851-1.47,4.275-0.36,4.275
			c0.69,0,1.56-0.465,2.61-1.395c1.05-0.93,2.22-2.505,3.51-4.725l1.08,0.63c-0.66,0.99-1.328,1.958-2.002,2.902
			c-0.675,0.945-1.403,1.793-2.183,2.542c-0.781,0.75-1.62,1.35-2.52,1.8c-0.9,0.45-1.906,0.675-3.015,0.675
			c-0.81,0-1.53-0.307-2.16-0.922C17.915,36.877,17.689,35.925,17.87,34.635z M31.82,15.78c-0.42,0.81-1.043,1.357-1.868,1.643
			c-0.826,0.285-1.613,0.247-2.362-0.113c-0.81-0.42-1.328-1.005-1.553-1.755c-0.225-0.75-0.112-1.515,0.337-2.295
			c0.42-0.78,1.042-1.29,1.868-1.53c0.825-0.24,1.612-0.18,2.362,0.18c0.75,0.42,1.238,0.998,1.463,1.732
			C32.292,14.377,32.209,15.09,31.82,15.78z"/>
	</g>
</g>
</svg>
