<?xml version="1.0" encoding="utf-8"?>
<!-- Generator: Adobe Illustrator 21.0.0, SVG Export Plug-In . SVG Version: 6.00 Build 0)  -->
<svg version="1.1" id="Layer_1" xmlns="http://www.w3.org/2000/svg" xmlns:xlink="http://www.w3.org/1999/xlink" x="0px" y="0px"
	 viewBox="0 0 50 50" enable-background="new 0 0 50 50" xml:space="preserve">
<g>
	<path fill="#777777" d="M35.75,44.5h-21.5C10.246,44.5,7,41.254,7,37.25v-21.5c0-4.004,3.246-7.25,7.25-7.25h21.5
		c4.004,0,7.25,3.246,7.25,7.25v21.5C43,41.254,39.754,44.5,35.75,44.5z"/>
	<path fill="#FFFFFF" d="M35.75,41.5h-21.5C10.246,41.5,7,38.254,7,34.25v-21.5c0-4.004,3.246-7.25,7.25-7.25h21.5
		c4.004,0,7.25,3.246,7.25,7.25v21.5C43,38.254,39.754,41.5,35.75,41.5z"/>
</g>
<g>
	<path fill="#E6E6E6" d="M35.177,16.714c-0.049-0.252-0.284-0.822-1.368-0.663c-1.18,0.161-3.829,0.242-7.873,0.242
		c-2.14,0-4.116-0.058-5.873-0.172c-0.544-0.033-0.887,0.043-1.11,0.252c-0.148,0.139-0.23,0.328-0.23,0.532
		c0,1.558-0.137,2.769-0.407,3.607c-0.101,0.326-0.024,0.568,0.059,0.713c0.119,0.209,0.32,0.353,0.597,0.429
		c0.281,0.113,0.514,0.071,0.664,0.015c0.26-0.101,0.463-0.323,0.606-0.665c0.394-0.976,0.834-1.644,1.31-1.987
		c0.642-0.471,1.696-0.709,3.135-0.709c0.37,0,0.591,0.003,0.601-0.003l0.024,11.863c0,0.484-0.091,0.835-0.265,1.014
		c-0.098,0.101-0.382,0.301-1.175,0.505c-0.782,0.2-0.937,0.77-0.841,1.151c0.068,0.425,0.287,0.617,0.492,0.719
		c0.2,0.084,0.47,0.095,0.934,0.038c1.375-0.169,3.149-0.159,5.267,0.026c0.262,0.026,0.42,0.042,0.533,0.042
		c0.06,0,0.107-0.004,0.149-0.014c0.378-0.066,0.644-0.358,0.698-0.774c0.08-0.583-0.158-0.869-0.389-1.017
		c-0.098-0.058-0.221-0.1-0.685-0.198c-0.876-0.206-1.16-0.39-1.24-0.457c-0.113-0.096-0.177-0.347-0.177-0.688L28.6,18.343
		c0.114-0.017,0.307-0.034,0.623-0.034c1.943,0,2.823,0.351,3.218,0.645c0.269,0.2,0.672,0.695,1.067,1.921
		c0.187,0.562,0.66,0.837,1.224,0.714c0.117-0.02,0.472-0.083,0.645-0.404c0.07-0.132,0.105-0.295,0.117-0.53l0.001-0.018
		C35.521,19.161,35.414,17.839,35.177,16.714z"/>
	<path fill="#777777" d="M33.41,15.752c-0.049-0.252-0.284-0.822-1.368-0.663c-1.18,0.161-3.829,0.242-7.873,0.242
		c-2.14,0-4.116-0.058-5.873-0.172c-0.544-0.033-0.887,0.043-1.11,0.252c-0.148,0.139-0.23,0.328-0.23,0.532
		c0,1.558-0.137,2.769-0.407,3.607c-0.101,0.326-0.024,0.568,0.059,0.713c0.119,0.209,0.32,0.353,0.597,0.429
		c0.281,0.113,0.514,0.071,0.664,0.015c0.26-0.101,0.463-0.323,0.606-0.665c0.394-0.976,0.834-1.644,1.31-1.987
		c0.642-0.471,1.696-0.709,3.135-0.709c0.37,0,0.591,0.003,0.601-0.003l0.024,11.863c0,0.484-0.091,0.835-0.265,1.014
		c-0.098,0.101-0.382,0.301-1.175,0.505c-0.782,0.2-0.937,0.77-0.841,1.151c0.068,0.425,0.287,0.617,0.492,0.719
		c0.2,0.084,0.47,0.095,0.934,0.038c1.375-0.169,3.149-0.159,5.267,0.026c0.262,0.026,0.42,0.042,0.533,0.042
		c0.06,0,0.107-0.004,0.149-0.014c0.378-0.066,0.644-0.358,0.698-0.774c0.08-0.583-0.158-0.869-0.389-1.017
		c-0.098-0.058-0.221-0.1-0.685-0.198c-0.876-0.206-1.16-0.39-1.24-0.457c-0.113-0.096-0.177-0.347-0.177-0.688l-0.012-12.172
		c0.114-0.017,0.307-0.034,0.623-0.034c1.943,0,2.823,0.351,3.218,0.645c0.269,0.2,0.672,0.695,1.067,1.921
		c0.187,0.562,0.66,0.837,1.224,0.714c0.117-0.02,0.472-0.083,0.645-0.404c0.07-0.132,0.105-0.295,0.117-0.53l0.001-0.018
		C33.754,18.199,33.646,16.877,33.41,15.752z"/>
</g>
</svg>
