<?xml version="1.0" encoding="utf-8"?>
<!-- Generator: Adobe Illustrator 21.0.0, SVG Export Plug-In . SVG Version: 6.00 Build 0)  -->
<svg version="1.1" id="Layer_1" xmlns="http://www.w3.org/2000/svg" xmlns:xlink="http://www.w3.org/1999/xlink" x="0px" y="0px"
	 viewBox="0 0 50 50" enable-background="new 0 0 50 50" xml:space="preserve">
<g>
	<g>
		<g>
			<path fill="#FFFFFF" d="M25.904,18.094l-8.505,7.676c-0.474,0.428-1.243,0.428-1.717,0l0,0c-0.474-0.428-0.474-1.122,0-1.55
				l8.505-7.676c0.474-0.428,1.243-0.428,1.717,0l0,0C26.378,16.972,26.378,17.666,25.904,18.094z"/>
			<path fill="#FFFFFF" d="M25.904,31.906l-8.505-7.676c-0.474-0.428-1.243-0.428-1.717,0l0,0c-0.474,0.428-0.474,1.122,0,1.55
				l8.505,7.676c0.474,0.428,1.243,0.428,1.717,0l0,0C26.378,33.028,26.378,32.334,25.904,31.906z"/>
		</g>
		<g>
			<path fill="#FFFFFF" d="M32.042,18.094l-8.505,7.676c-0.474,0.428-1.243,0.428-1.717,0l0,0c-0.474-0.428-0.474-1.122,0-1.55
				l8.505-7.676c0.474-0.428,1.243-0.428,1.717,0l0,0C32.517,16.972,32.517,17.666,32.042,18.094z"/>
			<path fill="#FFFFFF" d="M32.042,31.906l-8.505-7.676c-0.474-0.428-1.243-0.428-1.717,0l0,0c-0.474,0.428-0.474,1.122,0,1.55
				l8.505,7.676c0.474,0.428,1.243,0.428,1.717,0l0,0C32.517,33.028,32.517,32.334,32.042,31.906z"/>
		</g>
	</g>
	<g>
		<path fill="#FFFFFF" d="M25,8.5C15.887,8.5,8.5,15.887,8.5,25S15.887,41.5,25,41.5c9.113,0,16.5-7.387,16.5-16.5
			S34.113,8.5,25,8.5z M25,38.612c-7.518,0-13.612-6.095-13.612-13.612S17.482,11.388,25,11.388S38.613,17.482,38.613,25
			S32.518,38.612,25,38.612z"/>
	</g>
</g>
</svg>
