<?xml version="1.0" encoding="utf-8"?>
<!-- Generator: Adobe Illustrator 21.0.0, SVG Export Plug-In . SVG Version: 6.00 Build 0)  -->
<svg version="1.1" id="Layer_1" xmlns="http://www.w3.org/2000/svg" xmlns:xlink="http://www.w3.org/1999/xlink" x="0px" y="0px"
	 viewBox="0 0 50 50" enable-background="new 0 0 50 50" xml:space="preserve">
<g>
	<path fill="#E6E6E6" d="M33.75,44h-15.5C14.246,44,11,40.754,11,36.75v-21.5C11,11.246,14.246,8,18.25,8h15.5
		C37.754,8,41,11.246,41,15.25v21.5C41,40.754,37.754,44,33.75,44z"/>
	<g>
		<path fill="#FFFFFF" d="M32.75,43h-15.5C13.246,43,10,39.754,10,35.75v-21.5C10,10.246,13.246,7,17.25,7h15.5
			C36.754,7,40,10.246,40,14.25v21.5C40,39.754,36.754,43,32.75,43z"/>
	</g>
	<g>
		<path fill="#777777" d="M33.367,27.042c-0.405-0.683-1.494-0.949-3.128-0.949c-0.544,0-1.088,0.133-1.766,0.133
			c-0.544-0.272-0.816-0.544-1.227-0.816c-0.818-0.818-1.627-2.04-2.173-3.534v-0.139c0.546-1.766,0.95-3.944,0-4.894
			c-0.272-0.139-0.544-0.272-0.816-0.272h-0.272c-0.546,0-0.957,0.546-1.09,1.09c-0.544,1.899-0.272,2.856,0.272,4.49
			c-0.405,1.221-0.816,2.582-1.494,3.944c-0.544,0.949-0.955,1.766-1.362,2.443c-0.544,0.274-0.949,0.546-1.221,0.685
			c-1.634,0.949-2.451,2.171-2.591,2.854c0,0.274,0,0.406,0.139,0.678v0.139l0.678,0.405c0.139,0.133,0.272,0.133,0.544,0.133
			c1.09,0,2.45-1.355,4.083-4.209c0.134-0.139,0.134-0.139,0.274-0.139c1.353-0.546,3.126-0.818,5.438-1.09
			c1.362,0.683,2.989,0.957,4.077,0.957c0.546,0,0.957-0.139,1.229-0.274c0.265-0.272,0.405-0.683,0.537-0.816
			C33.5,27.587,33.5,27.315,33.367,27.042z M19.959,29.626c-0.017,0-0.02,0-0.059,0c-0.809,1.634-1.627,2.45-2.443,2.584
			c0.133-0.406,0.816-1.362,1.766-2.179c0.139-0.132,0.405-0.272,0.677-0.405C19.939,29.626,19.942,29.626,19.959,29.626
			c0.013,0,0.046,0,0.046,0S19.972,29.626,19.959,29.626z M23.985,17.248c0.133,0,0.133-0.133,0.133-0.133l0.139,0.133v0.139
			c0.132,0.133,0.132,0.677,0,1.362v0.272c0,0.405-0.139,0.677-0.272,1.221c0.066,0,0.1,0,0.1,0s-0.033,0-0.1,0
			C23.711,19.021,23.711,18.064,23.985,17.248z M22.219,28.131h-0.274c0.274-0.544,0.546-0.955,0.818-1.501
			c0.537-1.221,1.083-2.31,1.355-3.261c0.544,1.222,1.362,2.312,2.045,3.128c0.133,0.133,0.265,0.272,0.537,0.405
			C25.619,27.042,23.985,27.448,22.219,28.131z M32.551,27.859h-0.406c-0.683,0-1.634-0.272-2.582-0.683v-0.134h0.265
			c1.906,0,2.451,0.406,2.591,0.546c0,0.133,0.133,0.133,0.133,0.133V27.859z"/>
	</g>
</g>
</svg>
