<?xml version="1.0" encoding="utf-8"?>
<!-- Generator: Adobe Illustrator 21.0.0, SVG Export Plug-In . SVG Version: 6.00 Build 0)  -->
<svg version="1.1" id="Layer_1" xmlns="http://www.w3.org/2000/svg" xmlns:xlink="http://www.w3.org/1999/xlink" x="0px" y="0px"
	 viewBox="0 0 50 50" enable-background="new 0 0 50 50" xml:space="preserve">
<g>
	<path fill="#777777" d="M35.75,44.5h-21.5C10.246,44.5,7,41.254,7,37.25v-21.5c0-4.004,3.246-7.25,7.25-7.25h21.5
		c4.004,0,7.25,3.246,7.25,7.25v21.5C43,41.254,39.754,44.5,35.75,44.5z"/>
	<path fill="#FFFFFF" d="M35.75,41.5h-21.5C10.246,41.5,7,38.254,7,34.25v-21.5c0-4.004,3.246-7.25,7.25-7.25h21.5
		c4.004,0,7.25,3.246,7.25,7.25v21.5C43,38.254,39.754,41.5,35.75,41.5z"/>
</g>
<path fill="#E6E6E6" d="M34.31,16.25h-1.227v-0.208c0-1.169-0.956-2.125-2.125-2.125h-9.917c-1.169,0-2.125,0.956-2.125,2.125v0.208
	H17.69c-2.03,0-3.69,1.661-3.69,3.69v5.953c0,2.03,1.661,3.69,3.69,3.69h1.227v4.565c0,1.065,0.871,1.935,1.936,1.935h10.296
	c1.065,0,1.936-0.871,1.936-1.935v-4.565h1.227c2.03,0,3.69-1.661,3.69-3.69V19.94C38,17.911,36.339,16.25,34.31,16.25z"/>
<g>
	<path fill="#E6E6E6" d="M29.959,28.583h-9.917c-1.169,0-2.125-0.956-2.125-2.125V15.041c0-1.169,0.956-2.125,2.125-2.125h9.917
		c1.169,0,2.125,0.956,2.125,2.125v11.417C32.083,27.627,31.127,28.583,29.959,28.583z"/>
	<path fill="#777777" d="M33.31,28.583H16.69c-2.03,0-3.69-1.661-3.69-3.69V18.94c0-2.03,1.661-3.69,3.69-3.69h16.62
		c2.03,0,3.69,1.661,3.69,3.69v5.953C37,26.923,35.339,28.583,33.31,28.583z"/>
	<g>
		<path fill="#FFFFFF" d="M18.023,23.417c-0.063,0.191-0.106,0.391-0.106,0.602v9.129c0,1.065,0.871,1.935,1.936,1.935h10.296
			c1.065,0,1.936-0.871,1.936-1.935v-9.129c0-0.211-0.043-0.411-0.106-0.602H18.023z"/>
	</g>
	<path fill="#E6E6E6" d="M31.73,21.5h-3.377C28.159,21.5,28,21.341,28,21.147v-0.794C28,20.159,28.159,20,28.353,20h3.377
		c0.194,0,0.353,0.159,0.353,0.353v0.794C32.083,21.341,31.924,21.5,31.73,21.5z"/>
</g>
</svg>
