<?xml version="1.0" encoding="utf-8"?><svg version="1.1" id="Layer_1" xmlns="http://www.w3.org/2000/svg" xmlns:xlink="http://www.w3.org/1999/xlink" x="0px" y="0px" viewBox="0 0 50 50" enable-background="new 0 0 50 50" xml:space="preserve"><g><path fill="#F2F2F2" d="M19.072,30.001l-3.758,7.517c-0.224,0.448-0.042,0.993,0.406,1.217c0.1,0.05,0.205,0.08,0.31,0.091c0.365,0.039,0.733-0.149,0.907-0.497l3.822-7.645c-0.21-0.062-0.42-0.125-0.628-0.203C19.762,30.343,19.412,30.178,19.072,30.001z"/><path fill="#F2F2F2" d="M33.923,16.738c-1.052-2.31-2.94-4.071-5.317-4.96c-2.376-0.889-4.957-0.8-7.267,0.251c-2.31,1.052-4.072,2.94-4.961,5.317c-1.698,4.538,0.315,9.565,4.509,11.749l0.545-1.09c0.102-0.204,0.275-0.343,0.471-0.423c-3.515-1.714-5.223-5.864-3.825-9.599c1.155-3.085,4.092-4.992,7.207-4.992c0.894,0,1.802,0.157,2.687,0.488c1.923,0.719,3.451,2.145,4.301,4.013c0.851,1.868,0.923,3.957,0.203,5.88c-1.428,3.815-5.582,5.821-9.428,4.652c0.117,0.244,0.138,0.531,0.007,0.792l-0.481,0.962c0.893,0.266,1.798,0.4,2.693,0.4c3.85,0,7.481-2.358,8.908-6.171C35.064,21.629,34.975,19.047,33.923,16.738z"/><path fill="#F2F2F2" d="M23.047,28.022c-0.155-0.047-0.311-0.09-0.466-0.148c-0.234-0.087-0.459-0.187-0.679-0.294c-0.196,0.08-0.369,0.219-0.471,0.423l-0.545,1.09c0.341,0.177,0.691,0.342,1.059,0.48c0.208,0.078,0.418,0.141,0.628,0.203l0.481-0.962C23.185,28.553,23.164,28.266,23.047,28.022z"/></g></svg>