<?xml version="1.0" encoding="utf-8"?>
<!-- Generator: Adobe Illustrator 21.0.0, SVG Export Plug-In . SVG Version: 6.00 Build 0)  -->
<svg version="1.1" id="Layer_1" xmlns="http://www.w3.org/2000/svg" xmlns:xlink="http://www.w3.org/1999/xlink" x="0px" y="0px"
	 viewBox="0 0 50 50" enable-background="new 0 0 50 50" xml:space="preserve">
<g>
	<path fill="#777777" d="M35.75,44.5h-21.5C10.246,44.5,7,41.254,7,37.25v-21.5c0-4.004,3.246-7.25,7.25-7.25h21.5
		c4.004,0,7.25,3.246,7.25,7.25v21.5C43,41.254,39.754,44.5,35.75,44.5z"/>
	<path fill="#FFFFFF" d="M35.75,41.5h-21.5C10.246,41.5,7,38.254,7,34.25v-21.5c0-4.004,3.246-7.25,7.25-7.25h21.5
		c4.004,0,7.25,3.246,7.25,7.25v21.5C43,38.254,39.754,41.5,35.75,41.5z"/>
</g>
<g>
	<g>
		<path fill="#E6E6E6" d="M26,14.048c-4.971,0-9,4.029-9,9s4.029,9,9,9c4.971,0,9-4.029,9-9S30.971,14.048,26,14.048z M26,30.473
			c-4.101,0-7.425-3.324-7.425-7.425s3.324-7.425,7.425-7.425s7.425,3.324,7.425,7.425S30.101,30.473,26,30.473z"/>
	</g>
	<g>
		<path fill="#E6E6E6" d="M31.274,22.167h1.16c-0.387-2.843-2.607-5.096-5.433-5.534v1.154
			C29.196,18.202,30.906,19.954,31.274,22.167z"/>
	</g>
	<g>
		<path fill="#E6E6E6" d="M27,34.042c0-0.552-0.448-1-1-1s-1,0.448-1,1V41.5h2V34.042z"/>
	</g>
</g>
<g>
	<g>
		<path fill="#777777" d="M25,12.882c-4.971,0-9,4.029-9,9s4.029,9,9,9c4.971,0,9-4.029,9-9S29.971,12.882,25,12.882z M25,29.307
			c-4.101,0-7.425-3.324-7.425-7.425s3.324-7.425,7.425-7.425s7.425,3.324,7.425,7.425S29.101,29.307,25,29.307z"/>
	</g>
	<path fill="#777777" d="M24,41.417v-8.542c0-0.552,0.448-1,1-1h0c0.552,0,1,0.448,1,1v8.542c0,0.552-0.448,1-1,1h0
		C24.448,42.417,24,41.969,24,41.417z"/>
	<g>
		<path fill="#777777" d="M30.274,21h1.16c-0.387-2.843-2.607-5.096-5.433-5.534v1.154C28.196,17.035,29.906,18.787,30.274,21z"/>
	</g>
</g>
</svg>
