<?xml version="1.0" encoding="utf-8"?>
<!-- Generator: Adobe Illustrator 21.0.0, SVG Export Plug-In . SVG Version: 6.00 Build 0)  -->
<svg version="1.1" id="Layer_1" xmlns="http://www.w3.org/2000/svg" xmlns:xlink="http://www.w3.org/1999/xlink" x="0px" y="0px"
	 viewBox="0 0 50 50" enable-background="new 0 0 50 50" xml:space="preserve">
<g>
	<path fill="#777777" d="M35.75,44.5h-21.5C10.246,44.5,7,41.254,7,37.25v-21.5c0-4.004,3.246-7.25,7.25-7.25h21.5
		c4.004,0,7.25,3.246,7.25,7.25v21.5C43,41.254,39.754,44.5,35.75,44.5z"/>
	<path fill="#FFFFFF" d="M35.75,41.5h-21.5C10.246,41.5,7,38.254,7,34.25v-21.5c0-4.004,3.246-7.25,7.25-7.25h21.5
		c4.004,0,7.25,3.246,7.25,7.25v21.5C43,38.254,39.754,41.5,35.75,41.5z"/>
</g>
<g>
	<g>
		<g>
			<path fill="#E6E6E6" d="M26,34.075c-5.012,0-9.075-4.063-9.075-9.075c0-5.012,4.063-9.075,9.075-9.075V14
				c-6.075,0-11,4.925-11,11c0,6.075,4.925,11,11,11s11-4.925,11-11h-1.925C35.075,30.012,31.012,34.075,26,34.075z"/>
		</g>
	</g>
	<polygon fill="#E6E6E6" points="24,20.541 24,28.124 30,24.332 	"/>
	<g>
		<polygon fill="#E6E6E6" points="37.584,29.341 39.045,29.702 36.803,22.968 31.683,27.883 33.144,28.244 36.232,25.28 		"/>
	</g>
</g>
<g>
	<g>
		<g>
			<path fill="#777777" d="M25,33.075c-5.012,0-9.075-4.063-9.075-9.075c0-5.012,4.063-9.075,9.075-9.075V13
				c-6.075,0-11,4.925-11,11c0,6.075,4.925,11,11,11s11-4.925,11-11h-1.925C34.075,29.012,30.012,33.075,25,33.075z"/>
		</g>
	</g>
	<polygon fill="#777777" points="23,19.541 23,27.124 29,23.332 	"/>
	<g>
		<polygon fill="#777777" points="36.584,28.341 38.045,28.702 35.803,21.968 30.683,26.883 32.144,27.244 35.232,24.28 		"/>
	</g>
</g>
</svg>
