<?xml version="1.0" encoding="utf-8"?>
<!-- Generator: Adobe Illustrator 21.0.0, SVG Export Plug-In . SVG Version: 6.00 Build 0)  -->
<svg version="1.1" id="Layer_1" xmlns="http://www.w3.org/2000/svg" xmlns:xlink="http://www.w3.org/1999/xlink" x="0px" y="0px"
	 viewBox="0 0 50 50" enable-background="new 0 0 50 50" xml:space="preserve">
<g>
	<g>
		<g>
			<path fill="#FFFFFF" d="M21.147,18.303l8.247,7.444c0.46,0.415,1.205,0.415,1.665,0l0,0c0.46-0.415,0.46-1.088,0-1.503
				L22.812,16.8c-0.46-0.415-1.205-0.415-1.665,0l0,0C20.687,17.215,20.687,17.888,21.147,18.303z"/>
			<path fill="#FFFFFF" d="M21.147,31.697l8.247-7.444c0.46-0.415,1.205-0.415,1.665,0l0,0c0.46,0.415,0.46,1.088,0,1.503
				L22.812,33.2c-0.46,0.415-1.205,0.415-1.665,0l0,0C20.687,32.785,20.687,32.112,21.147,31.697z"/>
		</g>
	</g>
	<g>
		<path fill="#FFFFFF" d="M9,25c0,8.837,7.163,16,16,16c8.837,0,16-7.163,16-16S33.837,9,25,9C16.163,9,9,16.163,9,25z M11.8,25
			c0-7.29,5.91-13.2,13.2-13.2S38.2,17.71,38.2,25S32.29,38.2,25,38.2S11.8,32.29,11.8,25z"/>
	</g>
</g>
</svg>
