<?xml version="1.0" encoding="utf-8"?>
<!-- Generator: Adobe Illustrator 21.0.0, SVG Export Plug-In . SVG Version: 6.00 Build 0)  -->
<svg version="1.1" id="Layer_1" xmlns="http://www.w3.org/2000/svg" xmlns:xlink="http://www.w3.org/1999/xlink" x="0px" y="0px"
	 viewBox="0 0 50 50" enable-background="new 0 0 50 50" xml:space="preserve">
<g>
	<g>
		<g>
			<path fill="#FFFFFF" d="M25,8.5C15.887,8.5,8.5,15.887,8.5,25S15.887,41.5,25,41.5c9.113,0,16.5-7.387,16.5-16.5
				S34.113,8.5,25,8.5z M25,38.613c-7.518,0-13.613-6.095-13.613-13.613S17.482,11.387,25,11.387S38.613,17.482,38.613,25
				S32.518,38.613,25,38.613z"/>
		</g>
	</g>
	<g>
		<path fill="#FFFFFF" d="M20.414,29.067v-8.133c0-0.841,0.682-1.523,1.523-1.523h0c0.841,0,1.523,0.682,1.523,1.523v8.133
			c0,0.841-0.682,1.523-1.523,1.523h0C21.096,30.59,20.414,29.908,20.414,29.067z"/>
		<path fill="#FFFFFF" d="M26.539,29.067v-8.133c0-0.841,0.682-1.523,1.523-1.523h0c0.841,0,1.523,0.682,1.523,1.523v8.133
			c0,0.841-0.682,1.523-1.523,1.523h0C27.221,30.59,26.539,29.908,26.539,29.067z"/>
	</g>
</g>
</svg>
