<?xml version="1.0" encoding="utf-8"?>
<!-- Generator: Adobe Illustrator 21.0.0, SVG Export Plug-In . SVG Version: 6.00 Build 0)  -->
<svg version="1.1" id="Layer_1" xmlns="http://www.w3.org/2000/svg" xmlns:xlink="http://www.w3.org/1999/xlink" x="0px" y="0px"
	 viewBox="0 0 50 50" enable-background="new 0 0 50 50" xml:space="preserve">
<g>
	<g>
		<g>
			<path fill="#FFFFFF" d="M25,8.5C15.887,8.5,8.5,15.887,8.5,25S15.887,41.5,25,41.5c9.113,0,16.5-7.387,16.5-16.5
				S34.113,8.5,25,8.5z M25,38.613c-7.518,0-13.613-6.095-13.613-13.613S17.482,11.387,25,11.387S38.613,17.482,38.613,25
				S32.518,38.613,25,38.613z"/>
		</g>
	</g>
	<path fill="#FFFFFF" d="M29.067,9h-8.133c-0.841,0-1.523-0.682-1.523-1.523v0c0-0.841,0.682-1.523,1.523-1.523h8.133
		c0.841,0,1.523,0.682,1.523,1.523v0C30.59,8.318,29.908,9,29.067,9z"/>
	<path fill="#FFFFFF" d="M24.238,14.067v-2.79c0-0.36,0.292-0.652,0.652-0.652h0.22c0.36,0,0.652,0.292,0.652,0.652v2.79
		c0,0.36-0.292,0.652-0.652,0.652h-0.22C24.53,14.719,24.238,14.427,24.238,14.067z"/>
	<path fill="#FFFFFF" d="M24.239,38.536v-2.79c0-0.36,0.292-0.652,0.652-0.652h0.22c0.36,0,0.652,0.292,0.652,0.652v2.79
		c0,0.36-0.292,0.652-0.652,0.652h-0.22C24.53,39.187,24.239,38.896,24.239,38.536z"/>
	<path fill="#FFFFFF" d="M35.839,23.801h2.79c0.36,0,0.652,0.292,0.652,0.652v0.22c0,0.36-0.292,0.652-0.652,0.652h-2.79
		c-0.36,0-0.652-0.292-0.652-0.652v-0.22C35.188,24.093,35.48,23.801,35.839,23.801z"/>
	<path fill="#FFFFFF" d="M11.371,23.801h2.79c0.36,0,0.652,0.292,0.652,0.652v0.22c0,0.36-0.292,0.652-0.652,0.652h-2.79
		c-0.36,0-0.652-0.292-0.652-0.652v-0.22C10.719,24.093,11.011,23.801,11.371,23.801z"/>
</g>
</svg>
