<?xml version="1.0" encoding="utf-8"?>
<!-- Generator: Adobe Illustrator 21.0.0, SVG Export Plug-In . SVG Version: 6.00 Build 0)  -->
<svg version="1.1" id="Layer_1" xmlns="http://www.w3.org/2000/svg" xmlns:xlink="http://www.w3.org/1999/xlink" x="0px" y="0px"
	 viewBox="0 0 50 50" enable-background="new 0 0 50 50" xml:space="preserve">
<g>
	<g>
		<g>
			<path fill="#FFFFFF" d="M31.697,24.123l-7.444,8.247c-0.415,0.46-0.415,1.205,0,1.665h0c0.415,0.46,1.088,0.46,1.503,0
				l7.444-8.247c0.415-0.46,0.415-1.205,0-1.665l0,0C32.785,23.664,32.112,23.664,31.697,24.123z"/>
			<path fill="#FFFFFF" d="M18.303,24.123l7.444,8.247c0.415,0.46,0.415,1.205,0,1.665h0c-0.415,0.46-1.088,0.46-1.503,0
				L16.8,25.788c-0.415-0.46-0.415-1.205,0-1.665l0,0C17.215,23.664,17.888,23.664,18.303,24.123z"/>
		</g>
		<g>
			<path fill="#FFFFFF" d="M31.697,18.171l-7.444,8.247c-0.415,0.46-0.415,1.205,0,1.665l0,0c0.415,0.46,1.088,0.46,1.503,0
				l7.444-8.247c0.415-0.46,0.415-1.205,0-1.665l0,0C32.785,17.711,32.112,17.711,31.697,18.171z"/>
			<path fill="#FFFFFF" d="M18.303,18.171l7.444,8.247c0.415,0.46,0.415,1.205,0,1.665l0,0c-0.415,0.46-1.088,0.46-1.503,0
				L16.8,19.836c-0.415-0.46-0.415-1.205,0-1.665l0,0C17.215,17.711,17.888,17.711,18.303,18.171z"/>
		</g>
	</g>
	<g>
		<path fill="#FFFFFF" d="M25,9C16.163,9,9,16.163,9,25c0,8.837,7.163,16,16,16s16-7.163,16-16C41,16.163,33.837,9,25,9z M25,11.8
			c7.29,0,13.2,5.91,13.2,13.2S32.29,38.2,25,38.2S11.8,32.29,11.8,25S17.71,11.8,25,11.8z"/>
	</g>
</g>
</svg>
