<?xml version="1.0" encoding="utf-8"?>
<!-- Generator: Adobe Illustrator 21.0.0, SVG Export Plug-In . SVG Version: 6.00 Build 0)  -->
<svg version="1.1" id="Layer_1" xmlns="http://www.w3.org/2000/svg" xmlns:xlink="http://www.w3.org/1999/xlink" x="0px" y="0px"
	 viewBox="0 0 50 50" enable-background="new 0 0 50 50" xml:space="preserve">
<g>
	<g>
		<g>
			<path fill="#FFFFFF" d="M18.303,25.877l7.444-8.247c0.415-0.46,0.415-1.205,0-1.665l0,0c-0.415-0.46-1.088-0.46-1.503,0
				L16.8,24.212c-0.415,0.46-0.415,1.205,0,1.665l0,0C17.215,26.336,17.888,26.336,18.303,25.877z"/>
			<path fill="#FFFFFF" d="M31.697,25.877l-7.444-8.247c-0.415-0.46-0.415-1.205,0-1.665l0,0c0.415-0.46,1.088-0.46,1.503,0
				l7.444,8.247c0.415,0.46,0.415,1.205,0,1.665l0,0C32.785,26.336,32.112,26.336,31.697,25.877z"/>
		</g>
		<g>
			<path fill="#FFFFFF" d="M18.303,31.829l7.444-8.247c0.415-0.46,0.415-1.205,0-1.665l0,0c-0.415-0.46-1.088-0.46-1.503,0
				L16.8,30.164c-0.415,0.46-0.415,1.205,0,1.665l0,0C17.215,32.289,17.888,32.289,18.303,31.829z"/>
			<path fill="#FFFFFF" d="M31.697,31.829l-7.444-8.247c-0.415-0.46-0.415-1.205,0-1.665l0,0c0.415-0.46,1.088-0.46,1.503,0
				l7.444,8.247c0.415,0.46,0.415,1.205,0,1.665l0,0C32.785,32.289,32.112,32.289,31.697,31.829z"/>
		</g>
	</g>
	<g>
		<path fill="#FFFFFF" d="M25,41c8.837,0,16-7.163,16-16c0-8.837-7.163-16-16-16S9,16.163,9,25C9,33.837,16.163,41,25,41z M25,38.2
			c-7.29,0-13.2-5.91-13.2-13.2S17.71,11.8,25,11.8S38.2,17.71,38.2,25S32.29,38.2,25,38.2z"/>
	</g>
</g>
</svg>
