<?xml version="1.0" encoding="utf-8"?>
<!-- Generator: Adobe Illustrator 21.0.0, SVG Export Plug-In . SVG Version: 6.00 Build 0)  -->
<svg version="1.1" id="Layer_1" xmlns="http://www.w3.org/2000/svg" xmlns:xlink="http://www.w3.org/1999/xlink" x="0px" y="0px"
	 viewBox="0 0 50 50" enable-background="new 0 0 50 50" xml:space="preserve">
<g>
	<g>
		<g>
			<path fill="#FFFFFF" d="M25,8.5C15.887,8.5,8.5,15.887,8.5,25S15.887,41.5,25,41.5c9.113,0,16.5-7.387,16.5-16.5
				S34.113,8.5,25,8.5z M25,38.613c-7.518,0-13.613-6.095-13.613-13.613S17.482,11.387,25,11.387S38.613,17.482,38.613,25
				S32.518,38.613,25,38.613z"/>
		</g>
	</g>
	<path fill="#FFFFFF" d="M28.257,25.587c-0.324-0.324-0.324-0.85,0-1.174l1.416-1.416l2.705-2.705c0.324-0.324,0.324-0.85,0-1.174
		l-1.496-1.496c-0.324-0.324-0.85-0.324-1.174,0l-2.705,2.705L25,22.33l0,0l-4.708-4.708c-0.324-0.324-0.85-0.324-1.174,0
		l-1.496,1.496c-0.324,0.324-0.324,0.85,0,1.174l4.121,4.121c0.324,0.324,0.324,0.85,0,1.174l-4.121,4.121
		c-0.324,0.324-0.324,0.85,0,1.174l1.496,1.496c0.324,0.324,0.85,0.324,1.174,0l4.121-4.121c0.324-0.324,0.85-0.324,1.174,0
		l1.416,1.416l2.705,2.705c0.324,0.324,0.85,0.324,1.174,0l1.496-1.496c0.324-0.324,0.324-0.85,0-1.174l-2.705-2.705L28.257,25.587z
		"/>
</g>
</svg>
