<?xml version="1.0" encoding="utf-8"?>
<!-- Generator: Adobe Illustrator 19.1.0, SVG Export Plug-In . SVG Version: 6.00 Build 0)  -->
<svg version="1.1" id="Layer_1" xmlns="http://www.w3.org/2000/svg" xmlns:xlink="http://www.w3.org/1999/xlink" x="0px" y="0px"
	 viewBox="0 0 187.9 186.8" style="enable-background:new 0 0 187.9 186.8;" xml:space="preserve">
<style type="text/css">
	.st0{fill:#5C5C64;}
	.st1{fill:#FFFFFF;}
	.st2{filter:url(#Adobe_OpacityMaskFilter);}
	.st3{opacity:0.3;mask:url(#SVGID_1_);fill:#23201D;}
	.st4{fill:#57D381;}
</style>
<g>
	<path class="st0" d="M146,0H41.9C18.8,0,0,18.7,0,41.7v103.5c0,23,18.8,41.7,41.9,41.7H146c23.1,0,41.9-18.7,41.9-41.7V41.7
		C187.9,18.7,169.1,0,146,0z"/>
	<g>
		<g>
			<path class="st1" d="M137.5,37.2H49.8c-13.2,0-23.9,11.2-23.9,25.1c0,13.9,10.5,24.8,23.9,24.8h87.8c13.4,0,23.9-10.9,23.9-24.8
				C161.4,48.4,150.7,37.2,137.5,37.2z M137,83.6H50.3c-11.5,0-20.8-9.6-20.8-21.4c0-11.9,9.3-21.6,20.8-21.6H137
				c11.5,0,20.8,9.7,20.8,21.6C157.8,74,148.4,83.6,137,83.6z M62,61.6c1.9-1.2,2.9-3.2,2.9-5.9c0-3.7-2.5-7.7-8.1-7.7h-8.5
				c-2.4,0-4.1,1.7-4.1,4.2v19.9c0,2.5,1.6,4.1,4.1,4.1h8.6c5.4,0,8.7-3.1,8.7-8.3C65.5,65,64.2,62.6,62,61.6z M50,53.9h5.9
				c2.1,0,3.1,0.8,3.1,2.6c0,1.8-1,2.6-3.1,2.6H50V53.9z M56.3,70.5H50v-5.9h6.3c1.5,0,3.3,0.5,3.3,3C59.6,69.5,58.5,70.5,56.3,70.5
				z M85.4,51.6c-0.9-2.6-2.9-4-5.4-4c-2.5,0-4.4,1.5-5.3,4l-7.2,20.6c-0.5,1.6,0.2,3.4,1.6,3.9c0.3,0.1,0.7,0.2,1.1,0.2
				c1.2,0,2.3-0.8,2.8-2l2-6H85l2,6c0.4,1.1,1.5,1.9,2.7,1.9c0.4,0,0.8-0.1,1.1-0.2c1.4-0.6,2.2-2.4,1.6-3.9L85.4,51.6z M76.8,62.9
				l3-8.9c0-0.1,0.1-0.2,0.3-0.2c0.1,0,0.2,0.1,0.3,0.3l2.9,8.8H76.8z M132.5,48h-5.8c-2.5,0-4.1,1.6-4.1,4.1v20
				c0,2.4,1.7,4.1,4.1,4.1h5.8c7.8,0,12.4-4.3,12.9-12.2c0.1-1,0.1-2.5,0-4.3C144.9,52.2,140.3,48,132.5,48z M139.5,63.9
				c-0.3,4.3-2.6,6.5-6.9,6.5h-4.1V54h4.1c4.4,0,6.7,2.2,6.9,6.8C139.6,61.8,139.6,62.9,139.5,63.9z M115.9,47.9
				c-1.6,0-2.9,1.4-2.9,3.1v16.6l-9.3-17.1c-0.9-1.6-2.4-2.5-4.1-2.5c-2.6,0-4.5,2-4.5,4.8v20.6c0,1.7,1.4,3.1,3,3.1
				c1.6,0,2.9-1.4,2.9-3.1V56.3l9.6,17.6c1.2,2.1,3,2.6,4.2,2.6c2.3,0,4.1-1.9,4.1-4.5V51C118.8,49.2,117.5,47.9,115.9,47.9z"/>
		</g>
	</g>
	<defs>
		<filter id="Adobe_OpacityMaskFilter" filterUnits="userSpaceOnUse" x="0" y="-1.9" width="16.1" height="193">
			<feColorMatrix  type="matrix" values="1 0 0 0 0  0 1 0 0 0  0 0 1 0 0  0 0 0 1 0"/>
		</filter>
	</defs>
	<mask maskUnits="userSpaceOnUse" x="0" y="-1.9" width="16.1" height="193" id="SVGID_1_">
		<g class="st2">
			<path class="st0" d="M146,0H41.9C18.8,0,0,18.7,0,41.7v103.5c0,23,18.8,41.7,41.9,41.7H146c23.1,0,41.9-18.7,41.9-41.7V41.7
				C187.9,18.7,169.1,0,146,0z"/>
		</g>
	</mask>
	<rect x="0" y="-1.9" class="st3" width="16.1" height="193"/>
	<path class="st4" d="M187.9,122.7H0v22.5c0,3,0.3,6,1,8.9h186c0.6-2.9,1-5.8,1-8.9V122.7z"/>
</g>
</svg>
