<?xml version="1.0" encoding="utf-8"?>
<!-- Generator: Adobe Illustrator 21.0.0, SVG Export Plug-In . SVG Version: 6.00 Build 0)  -->
<svg version="1.1" id="Layer_1" xmlns="http://www.w3.org/2000/svg" xmlns:xlink="http://www.w3.org/1999/xlink" x="0px" y="0px"
	 viewBox="0 0 50 50" enable-background="new 0 0 50 50" xml:space="preserve">
<g>
	<path fill="#E6E6E6" d="M28.203,14.156l3.125,6.333c0.195,0.396,0.573,0.67,1.01,0.734l6.988,1.015
		c1.1,0.16,1.539,1.512,0.743,2.288l-5.057,4.929c-0.316,0.308-0.46,0.752-0.386,1.187l1.194,6.96
		c0.188,1.096-0.962,1.931-1.946,1.414l-6.251-3.286c-0.391-0.205-0.857-0.205-1.248,0l-6.251,3.286
		c-0.984,0.517-2.134-0.318-1.946-1.414l1.194-6.96c0.075-0.435-0.07-0.879-0.386-1.187l-5.057-4.929
		c-0.796-0.776-0.357-2.128,0.743-2.288l6.988-1.015c0.437-0.063,0.814-0.338,1.01-0.734l3.125-6.333
		C26.289,13.16,27.711,13.16,28.203,14.156z"/>
	<path fill="#FFFFFF" d="M26.203,13.156l3.125,6.333c0.195,0.396,0.573,0.67,1.01,0.734l6.988,1.015
		c1.1,0.16,1.539,1.512,0.743,2.288l-5.057,4.929c-0.316,0.308-0.46,0.752-0.386,1.187l1.194,6.96
		c0.188,1.096-0.962,1.931-1.946,1.414l-6.251-3.286c-0.391-0.205-0.857-0.205-1.248,0l-6.251,3.286
		c-0.984,0.517-2.134-0.318-1.946-1.414l1.194-6.96c0.075-0.435-0.07-0.879-0.386-1.187l-5.057-4.929
		c-0.796-0.776-0.357-2.128,0.743-2.288l6.988-1.015c0.437-0.063,0.814-0.338,1.01-0.734l3.125-6.333
		C24.289,12.16,25.711,12.16,26.203,13.156z"/>
</g>
</svg>
