<?xml version="1.0" encoding="utf-8"?>
<!-- Generator: Adobe Illustrator 21.0.0, SVG Export Plug-In . SVG Version: 6.00 Build 0)  -->
<svg version="1.1" id="Layer_1" xmlns="http://www.w3.org/2000/svg" xmlns:xlink="http://www.w3.org/1999/xlink" x="0px" y="0px"
	 viewBox="0 0 50 50" enable-background="new 0 0 50 50" xml:space="preserve">
<g>
	<path fill="#777777" d="M37.177,15.848H12.823c-1.283,0-2.323-1.04-2.323-2.323v-0.226c0-1.283,1.04-2.323,2.323-2.323h24.354
		c1.283,0,2.323,1.04,2.323,2.323v0.226C39.5,14.808,38.46,15.848,37.177,15.848z"/>
	<path fill="#777777" d="M37.177,23.573H12.823c-1.283,0-2.323-1.04-2.323-2.323v-0.226c0-1.283,1.04-2.323,2.323-2.323h24.354
		c1.283,0,2.323,1.04,2.323,2.323v0.226C39.5,22.533,38.46,23.573,37.177,23.573z"/>
	<path fill="#777777" d="M37.177,31.298H12.823c-1.283,0-2.323-1.04-2.323-2.323V28.75c0-1.283,1.04-2.323,2.323-2.323h24.354
		c1.283,0,2.323,1.04,2.323,2.323v0.226C39.5,30.258,38.46,31.298,37.177,31.298z"/>
	<path fill="#777777" d="M37.177,39.024H12.823c-1.283,0-2.323-1.04-2.323-2.323v-0.226c0-1.283,1.04-2.323,2.323-2.323h24.354
		c1.283,0,2.323,1.04,2.323,2.323v0.226C39.5,37.984,38.46,39.024,37.177,39.024z"/>
</g>
</svg>
