<?xml version="1.0" encoding="utf-8"?>
<!-- Generator: Adobe Illustrator 21.0.0, SVG Export Plug-In . SVG Version: 6.00 Build 0)  -->
<svg version="1.1" id="Layer_1" xmlns="http://www.w3.org/2000/svg" xmlns:xlink="http://www.w3.org/1999/xlink" x="0px" y="0px"
	 viewBox="0 0 50 50" enable-background="new 0 0 50 50" xml:space="preserve">
<g>
	<path fill="#777777" d="M35.75,44.5h-21.5C10.246,44.5,7,41.254,7,37.25v-21.5c0-4.004,3.246-7.25,7.25-7.25h21.5
		c4.004,0,7.25,3.246,7.25,7.25v21.5C43,41.254,39.754,44.5,35.75,44.5z"/>
	<path fill="#FFFFFF" d="M35.75,41.5h-21.5C10.246,41.5,7,38.254,7,34.25v-21.5c0-4.004,3.246-7.25,7.25-7.25h21.5
		c4.004,0,7.25,3.246,7.25,7.25v21.5C43,38.254,39.754,41.5,35.75,41.5z"/>
</g>
<g>
	<path fill="#E6E6E6" d="M22.291,24.419h-3.483c-1.65,0-2.999-1.35-2.999-2.999v-3.483c0-1.65,1.35-2.999,2.999-2.999h3.483
		c1.65,0,2.999,1.35,2.999,2.999v3.483C25.29,23.07,23.941,24.419,22.291,24.419z"/>
	<path fill="#E6E6E6" d="M33.192,24.419h-3.483c-1.65,0-2.999-1.35-2.999-2.999v-3.483c0-1.65,1.35-2.999,2.999-2.999h3.483
		c1.65,0,2.999,1.35,2.999,2.999v3.483C36.192,23.07,34.842,24.419,33.192,24.419z"/>
	<path fill="#E6E6E6" d="M22.291,35.062h-3.483c-1.65,0-2.999-1.35-2.999-2.999V28.58c0-1.65,1.35-2.999,2.999-2.999h3.483
		c1.65,0,2.999,1.35,2.999,2.999v3.483C25.29,33.713,23.941,35.062,22.291,35.062z"/>
	<path fill="#E6E6E6" d="M33.192,35.062h-3.483c-1.65,0-2.999-1.35-2.999-2.999V28.58c0-1.65,1.35-2.999,2.999-2.999h3.483
		c1.65,0,2.999,1.35,2.999,2.999v3.483C36.192,33.713,34.842,35.062,33.192,35.062z"/>
</g>
<g>
	<path fill="#777777" d="M21.291,23.419h-3.483c-1.65,0-2.999-1.35-2.999-2.999v-3.483c0-1.65,1.35-2.999,2.999-2.999h3.483
		c1.65,0,2.999,1.35,2.999,2.999v3.483C24.29,22.07,22.941,23.419,21.291,23.419z"/>
	<path fill="#777777" d="M32.192,23.419h-3.483c-1.65,0-2.999-1.35-2.999-2.999v-3.483c0-1.65,1.35-2.999,2.999-2.999h3.483
		c1.65,0,2.999,1.35,2.999,2.999v3.483C35.192,22.07,33.842,23.419,32.192,23.419z"/>
	<path fill="#777777" d="M21.291,34.062h-3.483c-1.65,0-2.999-1.35-2.999-2.999V27.58c0-1.65,1.35-2.999,2.999-2.999h3.483
		c1.65,0,2.999,1.35,2.999,2.999v3.483C24.29,32.713,22.941,34.062,21.291,34.062z"/>
	<path fill="#777777" d="M32.192,34.062h-3.483c-1.65,0-2.999-1.35-2.999-2.999V27.58c0-1.65,1.35-2.999,2.999-2.999h3.483
		c1.65,0,2.999,1.35,2.999,2.999v3.483C35.192,32.713,33.842,34.062,32.192,34.062z"/>
</g>
</svg>
