<?xml version="1.0" encoding="utf-8"?>
<!-- Generator: Adobe Illustrator 21.0.0, SVG Export Plug-In . SVG Version: 6.00 Build 0)  -->
<svg version="1.1" id="Layer_1" xmlns="http://www.w3.org/2000/svg" xmlns:xlink="http://www.w3.org/1999/xlink" x="0px" y="0px"
	 viewBox="0 0 50 50" enable-background="new 0 0 50 50" xml:space="preserve">
<path fill="#777777" d="M35.75,44.5h-21.5C10.246,44.5,7,41.254,7,37.25v-21.5c0-4.004,3.246-7.25,7.25-7.25h21.5
	c4.004,0,7.25,3.246,7.25,7.25v21.5C43,41.254,39.754,44.5,35.75,44.5z"/>
<path fill="#FFFFFF" d="M35.75,41.5h-21.5C10.246,41.5,7,38.254,7,34.25v-21.5c0-4.004,3.246-7.25,7.25-7.25h21.5
	c4.004,0,7.25,3.246,7.25,7.25v21.5C43,38.254,39.754,41.5,35.75,41.5z"/>
<g>
	<path fill="#777777" d="M21.832,19.576h-8.133c-0.841,0-1.523-0.682-1.523-1.523v0c0-0.841,0.682-1.523,1.523-1.523h8.133
		c0.841,0,1.523,0.682,1.523,1.523v0C23.355,18.894,22.673,19.576,21.832,19.576z"/>
	<path fill="#777777" d="M36.301,24.874H13.699c-0.841,0-1.523-0.682-1.523-1.523v0c0-0.841,0.682-1.523,1.523-1.523h22.602
		c0.841,0,1.523,0.682,1.523,1.523v0C37.824,24.192,37.142,24.874,36.301,24.874z"/>
	<path fill="#777777" d="M36.301,30.172H13.699c-0.841,0-1.523-0.682-1.523-1.523v0c0-0.841,0.682-1.523,1.523-1.523h22.602
		c0.841,0,1.523,0.682,1.523,1.523v0C37.824,29.49,37.142,30.172,36.301,30.172z"/>
	<path fill="#777777" d="M36.301,35.47H13.699c-0.841,0-1.523-0.682-1.523-1.523l0,0c0-0.841,0.682-1.523,1.523-1.523h22.602
		c0.841,0,1.523,0.682,1.523,1.523l0,0C37.824,34.788,37.142,35.47,36.301,35.47z"/>
</g>
<g>
	<polygon fill="#E6E6E6" points="33.333,15.667 42.969,15.667 33.335,5.542 33.333,5.542 	"/>
	<path fill="#B3B3B3" d="M43,15.667v-2.875c0-4.004-3.246-7.25-7.25-7.25h-2.415l9.634,10.125H43z"/>
</g>
</svg>
