<?xml version="1.0" encoding="utf-8"?>
<!-- Generator: Adobe Illustrator 21.0.0, SVG Export Plug-In . SVG Version: 6.00 Build 0)  -->
<svg version="1.1" id="Layer_1" xmlns="http://www.w3.org/2000/svg" xmlns:xlink="http://www.w3.org/1999/xlink" x="0px" y="0px"
	 viewBox="0 0 50 50" enable-background="new 0 0 50 50" xml:space="preserve">
<g>
	<g>
		<path fill="#FFFFFF" d="M25,9C16.163,9,9,16.163,9,25s7.163,16,16,16c8.837,0,16-7.163,16-16S33.837,9,25,9z M25,38.2
			c-7.29,0-13.2-5.91-13.2-13.2S17.71,11.8,25,11.8S38.2,17.71,38.2,25S32.29,38.2,25,38.2z"/>
	</g>
	<g>
		<path fill="#FFFFFF" d="M23.536,31.252V18.748c0-0.808,0.655-1.464,1.464-1.464h0c0.808,0,1.464,0.655,1.464,1.464v12.503
			c0,0.808-0.655,1.464-1.464,1.464h0C24.192,32.715,23.536,32.06,23.536,31.252z"/>
		<path fill="#FFFFFF" d="M18.748,23.536h12.503c0.808,0,1.464,0.655,1.464,1.464v0c0,0.808-0.655,1.464-1.464,1.464H18.748
			c-0.808,0-1.464-0.655-1.464-1.464v0C17.285,24.192,17.94,23.536,18.748,23.536z"/>
	</g>
</g>
</svg>
