<?xml version="1.0" encoding="utf-8"?>
<!-- Generator: Adobe Illustrator 21.0.0, SVG Export Plug-In . SVG Version: 6.00 Build 0)  -->
<svg version="1.1" id="Layer_1" xmlns="http://www.w3.org/2000/svg" xmlns:xlink="http://www.w3.org/1999/xlink" x="0px" y="0px"
	 viewBox="0 0 50 50" enable-background="new 0 0 50 50" xml:space="preserve">
<g>
	<path fill="#777777" d="M35.75,44.5h-21.5C10.246,44.5,7,41.254,7,37.25v-21.5c0-4.004,3.246-7.25,7.25-7.25h21.5
		c4.004,0,7.25,3.246,7.25,7.25v21.5C43,41.254,39.754,44.5,35.75,44.5z"/>
	<path fill="#FFFFFF" d="M35.75,41.5h-21.5C10.246,41.5,7,38.254,7,34.25v-21.5c0-4.004,3.246-7.25,7.25-7.25h21.5
		c4.004,0,7.25,3.246,7.25,7.25v21.5C43,38.254,39.754,41.5,35.75,41.5z"/>
</g>
<g>
	<g>
		<g>
			<path fill="#E6E6E6" d="M26,14c-6.075,0-11,4.925-11,11s4.925,11,11,11c6.075,0,11-4.925,11-11S32.075,14,26,14z M26,34.075
				c-5.012,0-9.075-4.063-9.075-9.075s4.063-9.075,9.075-9.075s9.075,4.063,9.075,9.075S31.012,34.075,26,34.075z"/>
		</g>
		<g>
			<path fill="#E6E6E6" d="M32.446,23.922h1.417c-0.472-3.475-3.186-6.228-6.641-6.763v1.41
				C29.907,19.077,31.996,21.218,32.446,23.922z"/>
		</g>
	</g>
	<path fill="#E6E6E6" d="M25,29.271v-8.542c0-0.552,0.448-1,1-1h0c0.552,0,1,0.448,1,1v8.542c0,0.552-0.448,1-1,1h0
		C25.448,30.271,25,29.823,25,29.271z"/>
	<path fill="#E6E6E6" d="M21.729,24h8.542c0.552,0,1,0.448,1,1v0c0,0.552-0.448,1-1,1h-8.542c-0.552,0-1-0.448-1-1v0
		C20.729,24.448,21.177,24,21.729,24z"/>
</g>
<g>
	<g>
		<g>
			<path fill="#777777" d="M25,13c-6.075,0-11,4.925-11,11s4.925,11,11,11c6.075,0,11-4.925,11-11S31.075,13,25,13z M25,33.075
				c-5.012,0-9.075-4.063-9.075-9.075s4.063-9.075,9.075-9.075s9.075,4.063,9.075,9.075S30.012,33.075,25,33.075z"/>
		</g>
		<g>
			<path fill="#777777" d="M31.446,22.922h1.417c-0.472-3.475-3.186-6.228-6.641-6.763v1.41
				C28.907,18.077,30.996,20.218,31.446,22.922z"/>
		</g>
	</g>
	<path fill="#777777" d="M24,28.271v-8.542c0-0.552,0.448-1,1-1h0c0.552,0,1,0.448,1,1v8.542c0,0.552-0.448,1-1,1h0
		C24.448,29.271,24,28.823,24,28.271z"/>
	<path fill="#777777" d="M20.729,23h8.542c0.552,0,1,0.448,1,1v0c0,0.552-0.448,1-1,1h-8.542c-0.552,0-1-0.448-1-1v0
		C19.729,23.448,20.177,23,20.729,23z"/>
</g>
</svg>
