<?xml version="1.0" encoding="utf-8"?>
<!-- Generator: Adobe Illustrator 21.0.0, SVG Export Plug-In . SVG Version: 6.00 Build 0)  -->
<svg version="1.1" id="Layer_1" xmlns="http://www.w3.org/2000/svg" xmlns:xlink="http://www.w3.org/1999/xlink" x="0px" y="0px"
	 viewBox="0 0 50 50" enable-background="new 0 0 50 50" xml:space="preserve">
<g>
	<g>
		<path fill="#FFFFFF" d="M25,8.5C15.887,8.5,8.5,15.887,8.5,25S15.887,41.5,25,41.5c9.113,0,16.5-7.387,16.5-16.5
			S34.113,8.5,25,8.5z M25,38.613c-7.518,0-13.613-6.095-13.613-13.613S17.482,11.387,25,11.387S38.613,17.482,38.613,25
			S32.518,38.613,25,38.613z"/>
	</g>
	<g>
		<path fill="#FFFFFF" d="M22.728,22.673l0.368-0.561c0.195-0.297,0.526-0.476,0.881-0.476h2.538v0.283l-2.487,3.901
			c-0.217,0.34-0.22,0.774-0.009,1.118l2.532,4.125v0.195H24.04c-0.37,0-0.713-0.194-0.904-0.511l-0.367-0.611
			c-0.012-0.021-0.024-0.042-0.035-0.063l-0.889-1.743l-0.891,1.748c-0.009,0.018-0.019,0.036-0.029,0.054l-0.354,0.606
			c-0.189,0.323-0.535,0.522-0.91,0.522h-2.503v-0.195l2.532-4.125c0.211-0.344,0.207-0.778-0.01-1.118l-2.487-3.901v-0.283h2.531
			c0.359,0,0.694,0.183,0.888,0.486l0.355,0.556c0.018,0.027,0.034,0.056,0.049,0.085l0.829,1.608l0.828-1.603
			C22.69,22.735,22.708,22.703,22.728,22.673z"/>
		<path fill="#FFFFFF" d="M31.001,31.259c-0.582,0-1.054-0.472-1.054-1.054v-6.12l-0.288,0.278
			c-0.412,0.398-1.067,0.394-1.474-0.009l-0.589-0.584c-0.402-0.399-0.417-1.044-0.035-1.461l2.961-3.226
			c0.2-0.217,0.481-0.341,0.776-0.341h0.489c0.582,0,1.054,0.472,1.054,1.054v10.41c0,0.582-0.472,1.054-1.054,1.054H31.001z"/>
	</g>
</g>
</svg>
