<?xml version="1.0" encoding="utf-8"?>
<!-- Generator: Adobe Illustrator 21.0.0, SVG Export Plug-In . SVG Version: 6.00 Build 0)  -->
<svg version="1.1" id="Layer_1" xmlns="http://www.w3.org/2000/svg" xmlns:xlink="http://www.w3.org/1999/xlink" x="0px" y="0px"
	 viewBox="0 0 50 50" enable-background="new 0 0 50 50" xml:space="preserve">
<g>
	<g>
		<path fill="#FFFFFF" d="M25,8.5C15.887,8.5,8.5,15.887,8.5,25S15.887,41.5,25,41.5c9.113,0,16.5-7.387,16.5-16.5
			S34.113,8.5,25,8.5z M25,38.613c-7.518,0-13.613-6.095-13.613-13.613S17.482,11.387,25,11.387S38.613,17.482,38.613,25
			S32.518,38.613,25,38.613z"/>
	</g>
	<g>
		<path fill="#FFFFFF" d="M18.553,23.49h12.894c0.834,0,1.51,0.676,1.51,1.51v0c0,0.834-0.676,1.51-1.51,1.51H18.553
			c-0.834,0-1.51-0.676-1.51-1.51v0C17.044,24.166,17.719,23.49,18.553,23.49z"/>
	</g>
</g>
</svg>
